<?xml version="1.0" encoding="utf-8"?>
<svg viewBox="2354.061 507.983 2508.353 2354.287" xmlns="http://www.w3.org/2000/svg">
  <defs>
    <style>.cls-1{fill:#1d1d1b;}.cls-2{fill:#e94289;}</style>
  </defs>
  <g id="Ebene_2" data-name="Ebene 2" style="" transform="matrix(0.753468, 0, 0, 0.741147, 1056.877457, 447.799567)">
    <g id="Ebene_1-2" data-name="Ebene 1" transform="matrix(1, 0, 0, 1, 2063.945068, 2829.719727)">
      <path class="cls-2" d="M 1407.766 -2705.737 C 583.129 -2705.737 -87.867 -2023.211 -87.867 -1184.322 C -87.867 -900.537 -10.677 -634.926 122.877 -407.346 C 137.225 -380.722 142.919 -349.399 138.164 -317.409 C 81.781 -3.98 -201.078 224.583 -204.485 227.261 C -213.641 234.535 -219.827 240.605 -224.063 246.082 C -225.169 247.336 -226.18 248.675 -227.088 250.085 C -227.834 251.326 -228.502 252.614 -229.092 253.941 C -229.338 254.469 -229.62 254.951 -229.839 255.451 C -230.444 256.949 -230.913 258.5 -231.242 260.085 C -231.433 261.011 -231.597 261.938 -231.761 262.865 L -231.761 262.948 C -232.105 264.781 -232.297 266.641 -232.335 268.508 C -232.355 279.562 -227.173 289.959 -218.397 296.476 C -218.205 296.643 -218.041 296.81 -217.877 296.949 C -217.522 297.208 -217.167 297.347 -216.857 297.57 C -215.613 298.449 -214.277 299.19 -212.876 299.775 C -208.611 301.861 -203.942 302.951 -199.211 302.963 C -195.831 303.297 -192.087 303.491 -187.696 303.491 C -183.979 303.491 -180.052 303.325 -175.852 303.019 C -172.09 302.741 201.743 275.06 420.049 251.198 C 517.317 240.605 629.153 226.538 729.792 213.305 C 775.608 209.215 821.734 215.873 864.622 232.765 C 1037.662 301.796 1221.895 337.197 1407.766 337.131 C 2232.485 337.131 2903.435 -345.386 2903.435 -1184.303 C 2903.435 -2023.22 2232.485 -2705.737 1407.766 -2705.737" style="fill: rgb(79, 143, 247);"/>
    </g>
  </g>
  <path d="M 3907.376 1810.831 L 3907.376 1802.176 L 3962.925 1802.176 L 3962.925 1810.831 Z M 3961.545 1810.831 L 3961.545 1802.176 L 4017.093 1802.176 L 4017.093 1810.831 Z M 4015.713 1810.831 L 4015.713 1802.176 L 4071.262 1802.176 L 4071.262 1810.831 Z M 4069.881 1810.831 L 4069.881 1802.176 L 4125.43 1802.176 L 4125.43 1810.831 Z M 4124.05 1810.831 L 4124.05 1802.176 L 4179.598 1802.176 L 4179.598 1810.831 Z M 4178.22 1810.831 L 4178.22 1802.176 L 4233.768 1802.176 L 4233.768 1810.831 Z M 4232.388 1810.831 L 4232.388 1802.176 L 4287.936 1802.176 L 4287.936 1810.831 Z" transform="matrix(1.903878, 0, -0.044221, 10.785084, -3609.317139, -17448.173828)" style="fill: rgb(255, 255, 255); white-space: pre;"/>
  <g style="stroke: none; stroke-width: 0; stroke-dasharray: none; stroke-linecap: butt; stroke-linejoin: miter; stroke-miterlimit: 10; fill: none; fill-rule: nonzero; opacity: 1;" transform="matrix(4.325096, 0, 0, 4.479698, 3628.77398, 1191.341204)">
    <path d="M 13.4 88.492 L 1.508 76.6 c -2.011 -2.011 -2.011 -5.271 0 -7.282 L 69.318 1.508 c 2.011 -2.011 5.271 -2.011 7.282 0 L 88.492 13.4 c 2.011 2.011 2.011 5.271 0 7.282 L 20.682 88.492 C 18.671 90.503 15.411 90.503 13.4 88.492 z" style="stroke: none; stroke-width: 1; stroke-dasharray: none; stroke-linecap: butt; stroke-linejoin: miter; stroke-miterlimit: 10; fill-rule: nonzero; opacity: 1; fill: rgb(255, 255, 255);" transform=" matrix(1 0 0 1 0 0) " stroke-linecap="round"/>
    <path d="M 69.318 88.492 L 1.508 20.682 c -2.011 -2.011 -2.011 -5.271 0 -7.282 L 13.4 1.508 c 2.011 -2.011 5.271 -2.011 7.282 0 l 67.809 67.809 c 2.011 2.011 2.011 5.271 0 7.282 L 76.6 88.492 C 74.589 90.503 71.329 90.503 69.318 88.492 z" style="stroke: none; stroke-width: 1; stroke-dasharray: none; stroke-linecap: butt; stroke-linejoin: miter; stroke-miterlimit: 10; fill-rule: nonzero; opacity: 1; fill: rgb(255, 255, 255);" transform=" matrix(1 0 0 1 0 0) " stroke-linecap="round"/>
  </g>
  <g style="stroke: none; stroke-width: 0; stroke-dasharray: none; stroke-linecap: butt; stroke-linejoin: miter; stroke-miterlimit: 10; fill: none; fill-rule: nonzero; opacity: 1;" transform="matrix(4.325096, 0, 0, 4.479698, 4228.476626, 1189.25429)">
    <path d="M 13.4 88.492 L 1.508 76.6 c -2.011 -2.011 -2.011 -5.271 0 -7.282 L 69.318 1.508 c 2.011 -2.011 5.271 -2.011 7.282 0 L 88.492 13.4 c 2.011 2.011 2.011 5.271 0 7.282 L 20.682 88.492 C 18.671 90.503 15.411 90.503 13.4 88.492 z" style="stroke: none; stroke-width: 1; stroke-dasharray: none; stroke-linecap: butt; stroke-linejoin: miter; stroke-miterlimit: 10; fill-rule: nonzero; opacity: 1; fill: rgb(255, 255, 255);" transform=" matrix(1 0 0 1 0 0) " stroke-linecap="round"/>
    <path d="M 69.318 88.492 L 1.508 20.682 c -2.011 -2.011 -2.011 -5.271 0 -7.282 L 13.4 1.508 c 2.011 -2.011 5.271 -2.011 7.282 0 l 67.809 67.809 c 2.011 2.011 2.011 5.271 0 7.282 L 76.6 88.492 C 74.589 90.503 71.329 90.503 69.318 88.492 z" style="stroke: none; stroke-width: 1; stroke-dasharray: none; stroke-linecap: butt; stroke-linejoin: miter; stroke-miterlimit: 10; fill-rule: nonzero; opacity: 1; fill: rgb(255, 255, 255);" transform=" matrix(1 0 0 1 0 0) " stroke-linecap="round"/>
  </g>
</svg>