<?xml version="1.0" encoding="utf-8"?>
<svg viewBox="2329.4 446.33 7533.107 2489.924" xmlns="http://www.w3.org/2000/svg">
  <defs>
    <style>.cls-1{fill:#1d1d1b;}.cls-2{fill:#e94289;}</style>
  </defs>
  <g id="Ebene_2" data-name="Ebene 2" style="" transform="matrix(0.753468, 0, 0, 0.741147, 1056.877457, 447.799567)">
    <g id="Ebene_1-2" data-name="Ebene 1" transform="matrix(1, 0, 0, 1, 2063.945068, 2829.719727)">
      <path class="cls-2" d="M 1407.766 -2705.737 C 583.129 -2705.737 -87.867 -2023.211 -87.867 -1184.322 C -87.867 -900.537 -10.677 -634.926 122.877 -407.346 C 137.225 -380.722 142.919 -349.399 138.164 -317.409 C 81.781 -3.98 -201.078 224.583 -204.485 227.261 C -213.641 234.535 -219.827 240.605 -224.063 246.082 C -225.169 247.336 -226.18 248.675 -227.088 250.085 C -227.834 251.326 -228.502 252.614 -229.092 253.941 C -229.338 254.469 -229.62 254.951 -229.839 255.451 C -230.444 256.949 -230.913 258.5 -231.242 260.085 C -231.433 261.011 -231.597 261.938 -231.761 262.865 L -231.761 262.948 C -232.105 264.781 -232.297 266.641 -232.335 268.508 C -232.355 279.562 -227.173 289.959 -218.397 296.476 C -218.205 296.643 -218.041 296.81 -217.877 296.949 C -217.522 297.208 -217.167 297.347 -216.857 297.57 C -215.613 298.449 -214.277 299.19 -212.876 299.775 C -208.611 301.861 -203.942 302.951 -199.211 302.963 C -195.831 303.297 -192.087 303.491 -187.696 303.491 C -183.979 303.491 -180.052 303.325 -175.852 303.019 C -172.09 302.741 201.743 275.06 420.049 251.198 C 517.317 240.605 629.153 226.538 729.792 213.305 C 775.608 209.215 821.734 215.873 864.622 232.765 C 1037.662 301.796 1221.895 337.197 1407.766 337.131 C 2232.485 337.131 2903.435 -345.386 2903.435 -1184.303 C 2903.435 -2023.22 2232.485 -2705.737 1407.766 -2705.737" style="fill: rgb(79, 143, 247);"/>
    </g>
  </g>
  <path d="M 5660.84 1908.384 Q 5628.417 1908.384 5611.312 1889.236 Q 5594.207 1870.089 5594.207 1828.219 L 5594.207 1738.864 L 5631.991 1738.864 L 5631.991 1832.049 Q 5631.991 1856.558 5639.395 1866.259 Q 5646.799 1875.96 5660.84 1875.96 Q 5674.882 1875.96 5682.541 1866.259 Q 5690.2 1856.558 5690.2 1832.049 L 5690.2 1738.864 L 5726.452 1738.864 L 5726.452 1828.219 Q 5726.452 1870.089 5709.73 1889.236 Q 5693.008 1908.384 5660.84 1908.384 Z" transform="matrix(5.876341, 0, 0, 5.933592, -27720.78125, -9078.081055)" style="fill: rgb(25, 25, 25); white-space: pre;"/>
  <path d="M 5761.938 1952.295 L 5761.938 1778.691 L 5792.574 1778.691 L 5795.127 1791.201 L 5796.148 1791.201 Q 5803.552 1784.563 5812.87 1780.095 Q 5822.189 1775.628 5832.145 1775.628 Q 5855.122 1775.628 5868.398 1793.116 Q 5881.673 1810.604 5881.673 1839.963 Q 5881.673 1861.664 5874.014 1876.982 Q 5866.355 1892.3 5854.229 1900.342 Q 5842.102 1908.384 5828.316 1908.384 Q 5820.146 1908.384 5812.487 1904.937 Q 5804.828 1901.49 5798.19 1895.108 L 5799.467 1915.277 L 5799.467 1952.295 Z M 5819.636 1877.748 Q 5829.337 1877.748 5836.23 1868.812 Q 5843.123 1859.877 5843.123 1840.474 Q 5843.123 1806.264 5821.167 1806.264 Q 5810.189 1806.264 5799.467 1817.752 L 5799.467 1869.578 Q 5804.573 1874.173 5809.679 1875.96 Q 5814.785 1877.748 5819.636 1877.748 Z" transform="matrix(5.876341, 0, 0, 5.933592, -27720.78125, -9078.081055)" style="fill: rgb(25, 25, 25); white-space: pre;"/>
  <path d="M 5963.369 1908.384 Q 5945.753 1908.384 5931.584 1900.597 Q 5917.415 1892.81 5909.118 1877.875 Q 5900.821 1862.94 5900.821 1842.006 Q 5900.821 1820.816 5910.011 1806.008 Q 5919.202 1791.201 5934.265 1783.414 Q 5949.328 1775.628 5966.688 1775.628 Q 5978.432 1775.628 5987.495 1779.457 Q 5996.558 1783.287 6003.707 1789.158 L 5986.091 1813.412 Q 5977.155 1806.008 5968.986 1806.008 Q 5955.455 1806.008 5947.413 1815.71 Q 5939.371 1825.411 5939.371 1842.006 Q 5939.371 1858.345 5947.413 1868.174 Q 5955.455 1878.003 5967.709 1878.003 Q 5973.836 1878.003 5979.708 1875.322 Q 5985.58 1872.642 5990.431 1868.812 L 6005.238 1893.321 Q 5995.792 1901.49 5984.814 1904.937 Q 5973.836 1908.384 5963.369 1908.384 Z" transform="matrix(5.876341, 0, 0, 5.933592, -27720.78125, -9078.081055)" style="fill: rgb(25, 25, 25); white-space: pre;"/>
  <path d="M 6074.68 1908.384 Q 6058.596 1908.384 6044.427 1900.597 Q 6030.258 1892.81 6021.578 1877.875 Q 6012.897 1862.94 6012.897 1842.006 Q 6012.897 1820.816 6021.578 1806.008 Q 6030.258 1791.201 6044.427 1783.414 Q 6058.596 1775.628 6074.68 1775.628 Q 6090.764 1775.628 6104.805 1783.414 Q 6118.847 1791.201 6127.527 1806.008 Q 6136.207 1820.816 6136.207 1842.006 Q 6136.207 1862.94 6127.527 1877.875 Q 6118.847 1892.81 6104.805 1900.597 Q 6090.764 1908.384 6074.68 1908.384 Z M 6074.68 1878.003 Q 6086.168 1878.003 6092.04 1868.174 Q 6097.912 1858.345 6097.912 1842.006 Q 6097.912 1825.411 6092.04 1815.71 Q 6086.168 1806.008 6074.68 1806.008 Q 6062.936 1806.008 6057.192 1815.71 Q 6051.448 1825.411 6051.448 1842.006 Q 6051.448 1858.345 6057.192 1868.174 Q 6062.936 1878.003 6074.68 1878.003 Z" transform="matrix(5.876341, 0, 0, 5.933592, -27720.78125, -9078.081055)" style="fill: rgb(25, 25, 25); white-space: pre;"/>
  <path d="M 6161.992 1905.32 L 6161.992 1778.691 L 6192.628 1778.691 L 6195.181 1800.902 L 6196.202 1800.902 Q 6203.095 1788.137 6212.797 1781.882 Q 6222.498 1775.628 6232.199 1775.628 Q 6237.561 1775.628 6241.135 1776.266 Q 6244.709 1776.904 6247.262 1778.181 L 6241.135 1810.604 Q 6237.816 1809.582 6234.625 1809.072 Q 6231.434 1808.561 6227.349 1808.561 Q 6220.2 1808.561 6212.414 1813.795 Q 6204.627 1819.029 6199.521 1831.794 L 6199.521 1905.32 Z" transform="matrix(5.876341, 0, 0, 5.933592, -27720.78125, -9078.081055)" style="fill: rgb(25, 25, 25); white-space: pre;"/>
  <path d="M 6306.236 1908.384 Q 6282.748 1908.384 6268.579 1890.64 Q 6254.41 1872.897 6254.41 1842.006 Q 6254.41 1821.326 6261.941 1806.391 Q 6269.473 1791.456 6281.599 1783.542 Q 6293.726 1775.628 6307.002 1775.628 Q 6317.469 1775.628 6324.617 1779.202 Q 6331.766 1782.776 6338.148 1788.903 L 6336.616 1769.5 L 6336.616 1726.355 L 6374.146 1726.355 L 6374.146 1905.32 L 6343.51 1905.32 L 6340.957 1892.81 L 6339.935 1892.81 Q 6333.298 1899.448 6324.362 1903.916 Q 6315.427 1908.384 6306.236 1908.384 Z M 6315.937 1877.748 Q 6322.064 1877.748 6327.043 1875.195 Q 6332.021 1872.642 6336.616 1866.259 L 6336.616 1814.433 Q 6331.766 1809.838 6326.277 1808.051 Q 6320.788 1806.264 6315.682 1806.264 Q 6306.746 1806.264 6299.853 1814.816 Q 6292.96 1823.369 6292.96 1841.495 Q 6292.96 1860.132 6298.96 1868.94 Q 6304.959 1877.748 6315.937 1877.748 Z" transform="matrix(5.876341, 0, 0, 5.933592, -27720.78125, -9078.081055)" style="fill: rgb(25, 25, 25); white-space: pre;"/>
  <path d="M 3115.965 1798.984 Q 3106.263 1798.984 3099.753 1792.218 Q 3093.243 1785.453 3093.243 1775.496 Q 3093.243 1765.284 3099.753 1758.519 Q 3106.263 1751.753 3115.965 1751.753 Q 3125.666 1751.753 3132.176 1758.519 Q 3138.686 1765.284 3138.686 1775.496 Q 3138.686 1785.453 3132.176 1792.218 Q 3125.666 1798.984 3115.965 1798.984 Z" transform="matrix(7.253306, 0, 0, 7.202628, -18783.748047, -11371.601562)" style="fill: rgb(255, 255, 255); white-space: pre;"/>
  <path d="M 3192.554 1798.984 Q 3182.853 1798.984 3176.343 1792.218 Q 3169.833 1785.453 3169.833 1775.496 Q 3169.833 1765.284 3176.343 1758.519 Q 3182.853 1751.753 3192.554 1751.753 Q 3202.256 1751.753 3208.766 1758.519 Q 3215.276 1765.284 3215.276 1775.496 Q 3215.276 1785.453 3208.766 1792.218 Q 3202.256 1798.984 3192.554 1798.984 Z" transform="matrix(7.253306, 0, 0, 7.202628, -18783.748047, -11371.601562)" style="fill: rgb(255, 255, 255); white-space: pre;"/>
  <path d="M 3961.376 2192.482 L 3933.481 2181.117 Q 3947.429 2155.805 3953.628 2128.297 Q 3959.827 2100.789 3959.827 2074.186 Q 3959.827 2047.324 3953.628 2019.816 Q 3947.429 1992.308 3933.481 1967.254 L 3961.376 1955.889 Q 3977.648 1982.493 3986.559 2011.292 Q 3995.47 2040.091 3995.47 2074.186 Q 3995.47 2108.28 3986.559 2136.95 Q 3977.648 2165.62 3961.376 2192.482 Z" transform="matrix(0.005688, 2.627501, -2.588986, 0.005606, 9427.951172, -8493.666992)" style="fill: rgb(255, 255, 255); line-height: 413.263px; white-space: pre;"/>
</svg>