<?xml version="1.0" encoding="utf-8"?>
<svg viewBox="2354.061 507.983 2508.353 2354.287" xmlns="http://www.w3.org/2000/svg">
  <defs>
    <style>.cls-1{fill:#1d1d1b;}.cls-2{fill:#e94289;}</style>
  </defs>
  <g id="Ebene_2" data-name="Ebene 2" style="" transform="matrix(0.753468, 0, 0, 0.741147, 1056.877457, 447.799567)">
    <g id="Ebene_1-2" data-name="Ebene 1" transform="matrix(1, 0, 0, 1, 2063.945068, 2829.719727)">
      <path class="cls-2" d="M 1407.766 -2705.737 C 583.129 -2705.737 -87.867 -2023.211 -87.867 -1184.322 C -87.867 -900.537 -10.677 -634.926 122.877 -407.346 C 137.225 -380.722 142.919 -349.399 138.164 -317.409 C 81.781 -3.98 -201.078 224.583 -204.485 227.261 C -213.641 234.535 -219.827 240.605 -224.063 246.082 C -225.169 247.336 -226.18 248.675 -227.088 250.085 C -227.834 251.326 -228.502 252.614 -229.092 253.941 C -229.338 254.469 -229.62 254.951 -229.839 255.451 C -230.444 256.949 -230.913 258.5 -231.242 260.085 C -231.433 261.011 -231.597 261.938 -231.761 262.865 L -231.761 262.948 C -232.105 264.781 -232.297 266.641 -232.335 268.508 C -232.355 279.562 -227.173 289.959 -218.397 296.476 C -218.205 296.643 -218.041 296.81 -217.877 296.949 C -217.522 297.208 -217.167 297.347 -216.857 297.57 C -215.613 298.449 -214.277 299.19 -212.876 299.775 C -208.611 301.861 -203.942 302.951 -199.211 302.963 C -195.831 303.297 -192.087 303.491 -187.696 303.491 C -183.979 303.491 -180.052 303.325 -175.852 303.019 C -172.09 302.741 201.743 275.06 420.049 251.198 C 517.317 240.605 629.153 226.538 729.792 213.305 C 775.608 209.215 821.734 215.873 864.622 232.765 C 1037.662 301.796 1221.895 337.197 1407.766 337.131 C 2232.485 337.131 2903.435 -345.386 2903.435 -1184.303 C 2903.435 -2023.22 2232.485 -2705.737 1407.766 -2705.737" style="fill: rgb(79, 143, 247);"/>
    </g>
  </g>
  <path d="M 3115.965 1798.984 Q 3106.263 1798.984 3099.753 1792.218 Q 3093.243 1785.453 3093.243 1775.496 Q 3093.243 1765.284 3099.753 1758.519 Q 3106.263 1751.753 3115.965 1751.753 Q 3125.666 1751.753 3132.176 1758.519 Q 3138.686 1765.284 3138.686 1775.496 Q 3138.686 1785.453 3132.176 1792.218 Q 3125.666 1798.984 3115.965 1798.984 Z" transform="matrix(7.253306, 0, 0, 7.202628, -18783.748047, -11371.601562)" style="fill: rgb(255, 255, 255); white-space: pre;"/>
  <path d="M 3192.554 1798.984 Q 3182.853 1798.984 3176.343 1792.218 Q 3169.833 1785.453 3169.833 1775.496 Q 3169.833 1765.284 3176.343 1758.519 Q 3182.853 1751.753 3192.554 1751.753 Q 3202.256 1751.753 3208.766 1758.519 Q 3215.276 1765.284 3215.276 1775.496 Q 3215.276 1785.453 3208.766 1792.218 Q 3202.256 1798.984 3192.554 1798.984 Z" transform="matrix(7.253306, 0, 0, 7.202628, -18783.748047, -11371.601562)" style="fill: rgb(255, 255, 255); white-space: pre;"/>
  <path d="M 3961.377 2192.482 L 3933.481 2181.117 Q 3947.429 2155.805 3953.628 2128.297 Q 3959.827 2100.789 3959.827 2074.186 Q 3959.827 2047.324 3953.628 2019.816 Q 3947.429 1992.308 3933.481 1967.254 L 3961.377 1955.889 Q 3977.649 1982.493 3986.56 2011.292 Q 3995.471 2040.091 3995.471 2074.186 Q 3995.471 2108.28 3986.56 2136.95 Q 3977.649 2165.62 3961.377 2192.482 Z" transform="matrix(0.005688, 2.627501, -2.588986, 0.005606, 9427.951172, -8493.666992)" style="fill: rgb(255, 255, 255); line-height: 413.263px; white-space: pre;"/>
</svg>